<?xml version="1.0" encoding="utf-8"?><svg viewBox="0 0 461 333.7" xmlns="http://www.w3.org/2000/svg" xmlns:xlink="http://www.w3.org/1999/xlink"><style>:root>svg{display:none}:root>svg:target{display:block}</style><svg fill="none" viewBox="0 0 23 11" id="arrow" xmlns="http://www.w3.org/2000/svg"><path d="M21.375 8.688l-9.688-6.406L2 8.687" stroke="#fff" stroke-width="3" stroke-linecap="round"/></svg><svg fill="none" viewBox="0 0 22 22" id="clock" xmlns="http://www.w3.org/2000/svg"><g clip-path="url(#bclip0_106_521)" fill="#1088ca"><path d="M11 0C4.934 0 0 4.934 0 11s4.934 11 11 11 11-4.934 11-11S17.066 0 11 0zm0 20.296c-5.125 0-9.296-4.17-9.296-9.296 0-5.125 4.17-9.296 9.296-9.296 5.126 0 9.296 4.17 9.296 9.296 0 5.125-4.17 9.296-9.296 9.296z"/><path fill-rule="evenodd" clip-rule="evenodd" d="M22 11c0 6.075-4.925 11-11 11S0 17.075 0 11 4.925 0 11 0s11 4.925 11 11zm-10.148-.357l3.067 2.3a.85.85 0 01-.512 1.534.846.846 0 01-.51-.17l-3.408-2.556a.85.85 0 01-.341-.682V5.957a.851.851 0 111.704 0v4.686z"/></g><defs><clipPath id="bclip0_106_521"><path fill="#fff" d="M0 0h22v22H0z"/></clipPath></defs></svg><svg fill="none" viewBox="0 0 16 16" id="close" xmlns="http://www.w3.org/2000/svg"><path stroke="#fff" stroke-width="2" d="M.721.722l13.85 14.428M14.85.707L.708 14.849"/></svg><svg fill="none" viewBox="0 0 28 28" id="features-1" xmlns="http://www.w3.org/2000/svg"><path d="M.667 23.333c0 2.267 1.733 4 4 4h18.666c2.267 0 4-1.733 4-4V12.667H.667v10.666zm22.666-20h-2.666V2c0-.8-.534-1.333-1.334-1.333S18 1.2 18 2v1.333h-8V2C10 1.2 9.467.667 8.667.667c-.8 0-1.334.533-1.334 1.333v1.333H4.667c-2.267 0-4 1.734-4 4V10h26.666V7.333c0-2.266-1.733-4-4-4z" fill="#1088ca"/></svg><svg fill="none" viewBox="0 0 28 32" id="features-2" xmlns="http://www.w3.org/2000/svg"><path fill-rule="evenodd" clip-rule="evenodd" d="M14 0c-1.38 0-3.686.53-5.856 1.12-2.22.6-4.458 1.31-5.774 1.74A3.08 3.08 0 00.282 5.384c-1.192 8.954 1.574 15.59 4.93 19.98a23.553 23.553 0 005.034 4.906c.772.546 1.488.964 2.096 1.25.56.264 1.162.48 1.658.48s1.096-.216 1.658-.48a14.315 14.315 0 002.096-1.25 23.548 23.548 0 005.034-4.906c3.356-4.39 6.122-11.026 4.93-19.98a3.082 3.082 0 00-2.088-2.526 124.941 124.941 0 00-5.774-1.74C17.686.532 15.38 0 14 0zm4.292 10.292a1.001 1.001 0 111.416 1.416l-6 6a1 1 0 01-1.416 0l-3-3a1.002 1.002 0 011.416-1.416L13 15.586l5.292-5.294z" fill="#1088ca"/></svg><svg fill="none" viewBox="0 0 29 22" id="features-3" xmlns="http://www.w3.org/2000/svg"><path fill-rule="evenodd" clip-rule="evenodd" d="M28.27 17.905a3.99 3.99 0 01-1.216 2.858 4.21 4.21 0 01-2.935 1.184H4.746a4.21 4.21 0 01-2.936-1.184 3.99 3.99 0 01-1.215-2.858v-1.347H28.27v1.347zm0-4.042V4.431c0-1.072-.437-2.1-1.216-2.858A4.21 4.21 0 0024.12.39H4.746A4.209 4.209 0 001.81 1.573 3.989 3.989 0 00.595 4.431v9.432H28.27zm-6.919-2.695c.367 0 .72-.142.979-.394a1.33 1.33 0 00.405-.953c0-.357-.146-.7-.405-.953a1.403 1.403 0 00-.979-.394h-6.919c-.367 0-.719.142-.978.394a1.33 1.33 0 00-.405.953c0 .357.145.7.405.953.26.252.611.394.978.394h6.92z" fill="#1088ca"/></svg><svg fill="none" viewBox="0 0 32 23" id="features-4" xmlns="http://www.w3.org/2000/svg"><path d="M31.058 1.123C29.117.309 27.178 0 25.238 0 19.077 0 12.92 3.117 6.761 3.117c-1.544 0-3.088-.196-4.632-.686a1.71 1.71 0 00-.518-.081C.752 2.35 0 3.016 0 3.94v15.863c0 .632.361 1.23.942 1.473 1.94.814 3.88 1.124 5.82 1.124 6.159 0 12.317-3.118 18.476-3.118 1.544 0 3.088.196 4.632.686.174.055.348.081.517.081.861 0 1.613-.666 1.613-1.59V2.596c0-.632-.362-1.23-.942-1.473zM16 16c-2.21 0-4-2.15-4-4.8 0-2.651 1.79-4.8 4-4.8 2.209 0 4 2.149 4 4.8S18.208 16 16 16z" fill="#1088ca"/></svg><svg fill="none" viewBox="0 0 32 32" id="features-5" xmlns="http://www.w3.org/2000/svg"><path d="M0 17c0-.394.08-.784.235-1.148.155-.364.382-.695.669-.973a3.09 3.09 0 011-.65 3.16 3.16 0 012.361 0c.375.15.715.371 1.001.65.287.278.514.609.669.973.155.364.235.754.235 1.148v12c0 .796-.325 1.559-.904 2.121A3.13 3.13 0 013.085 32a3.13 3.13 0 01-2.181-.879A2.959 2.959 0 010 29V17zM8.226 16.666v10.86c0 .743.213 1.472.614 2.104a4.073 4.073 0 001.66 1.476l.104.05c1.14.555 2.4.844 3.675.844h11.138c.951 0 1.873-.32 2.61-.906a3.982 3.982 0 001.425-2.31l2.468-12c.12-.58.105-1.179-.043-1.753a3.96 3.96 0 00-.81-1.567 4.098 4.098 0 00-1.42-1.08 4.21 4.21 0 00-1.76-.384h-7.321V4c0-1.06-.433-2.078-1.205-2.828A4.173 4.173 0 0016.453 0c-.546 0-1.069.21-1.455.586A1.973 1.973 0 0014.396 2v1.334a7.856 7.856 0 01-1.645 4.8l-2.88 3.732a7.856 7.856 0 00-1.645 4.8z" fill="#1088ca"/></svg><svg fill="none" viewBox="0 0 26 32" id="features-6" xmlns="http://www.w3.org/2000/svg"><path d="M10.833 0c-.574 0-1.125.21-1.532.586A1.925 1.925 0 008.667 2c0 .53.228 1.04.634 1.414.407.375.958.586 1.532.586h4.334c.574 0 1.125-.21 1.532-.586.406-.375.634-.884.634-1.414 0-.53-.228-1.04-.634-1.414A2.261 2.261 0 0015.167 0h-4.334z" fill="#1088ca"/><path fill-rule="evenodd" clip-rule="evenodd" d="M0 6c0-1.06.457-2.078 1.27-2.828C2.081 2.422 3.183 2 4.332 2c0 1.591.685 3.117 1.904 4.243C7.457 7.368 9.11 8 10.833 8h4.334c1.724 0 3.377-.632 4.596-1.757C20.982 5.117 21.667 3.59 21.667 2c1.149 0 2.251.421 3.064 1.172C25.544 3.922 26 4.939 26 6v22c0 1.06-.456 2.078-1.27 2.828-.812.75-1.914 1.172-3.063 1.172H4.333c-1.149 0-2.251-.421-3.064-1.172C.457 30.078 0 29.061 0 28V6zm6.5 8c-.575 0-1.126.21-1.532.586A1.925 1.925 0 004.333 16c0 .53.229 1.04.635 1.414.406.375.957.586 1.532.586h.022c.574 0 1.125-.21 1.532-.586.406-.375.634-.884.634-1.414 0-.53-.228-1.04-.634-1.414A2.262 2.262 0 006.522 14H6.5zm6.5 0c-.575 0-1.126.21-1.532.586A1.925 1.925 0 0010.833 16c0 .53.229 1.04.635 1.414.406.375.957.586 1.532.586h6.5c.575 0 1.126-.21 1.532-.586.406-.375.635-.884.635-1.414 0-.53-.229-1.04-.635-1.414A2.262 2.262 0 0019.5 14H13zm-6.5 8c-.575 0-1.126.21-1.532.586A1.925 1.925 0 004.333 24c0 .53.229 1.04.635 1.414.406.375.957.586 1.532.586h.022c.574 0 1.125-.21 1.532-.586.406-.375.634-.884.634-1.414 0-.53-.228-1.04-.634-1.414A2.262 2.262 0 006.522 22H6.5zm6.5 0c-.575 0-1.126.21-1.532.586A1.925 1.925 0 0010.833 24c0 .53.229 1.04.635 1.414.406.375.957.586 1.532.586h6.5c.575 0 1.126-.21 1.532-.586.406-.375.635-.884.635-1.414 0-.53-.229-1.04-.635-1.414A2.262 2.262 0 0019.5 22H13z" fill="#1088ca"/></svg><svg fill="none" viewBox="0 0 30 28" id="like" xmlns="http://www.w3.org/2000/svg"><path d="M25 18.574a1.874 1.874 0 01.718 3.607 1.874 1.874 0 01-.718.143h-1.25a1.875 1.875 0 011.875 1.875c0 1.036-.84 1.25-1.875 1.25h-8.125c-3.564 0-4.375-.625-8.75-1.25V13.574C9.938 13.574 15 7.949 15 2.949c0-1.976 2.736-2.713 3.75.899.625 2.226-1.25 6.6-1.25 6.6h10a1.875 1.875 0 011.875 1.876c0 1.036-.84 2.5-1.875 2.5h-1.25a1.875 1.875 0 110 3.75H25zM6.875 11.699H.625v15h6.25v-15z" stroke="#1088ca" stroke-linecap="round" stroke-linejoin="round"/><path d="M4.063 23.574a.313.313 0 100 .625.313.313 0 000-.625z" stroke="#1088ca" stroke-linecap="round" stroke-linejoin="round"/></svg><svg fill="none" viewBox="0 0 20 24" id="pdf" xmlns="http://www.w3.org/2000/svg"><path d="M5.645 15.127c-.215 0-.36.02-.434.042v1.374c.089.021.2.027.352.027.559 0 .903-.282.903-.76 0-.427-.296-.683-.821-.683zm4.068.014c-.233 0-.385.02-.475.042v3.045c.09.02.235.02.365.02.954.008 1.574-.517 1.574-1.628.007-.968-.559-1.48-1.464-1.48z" fill="#FED43D"/><path d="M12.333.333c-.662-.165-9.229-.002-9.332 0h-.006A2.333 2.333 0 00.667 2.667v18.666A2.333 2.333 0 003 23.667h14a2.333 2.333 0 002.333-2.33v-.004c.001-.07.167-12.836 0-14-.166-1.166-6.333-6.833-7-7zM7.081 16.888c-.36.339-.892.49-1.512.49-.191.002-.36.148-.36.34v.803a.5.5 0 01-.5.5h-.042a.5.5 0 01-.5-.5V14.86a.48.48 0 01.427-.484c.33-.033.663-.047.995-.043.65 0 1.112.124 1.423.373.297.235.497.621.497 1.076-.001.458-.153.844-.428 1.106zm4.442 1.581c-.49.407-1.236.601-2.147.601-.3 0-.55-.01-.76-.026a.476.476 0 01-.435-.482v-3.7c0-.248.182-.46.43-.484.33-.033.66-.048.992-.045.883 0 1.457.159 1.905.497.485.36.788.932.788 1.755 0 .89-.325 1.505-.773 1.884zm4.31-3.669a.432.432 0 01-.431.432h-.856a.5.5 0 00-.5.5v.063a.5.5 0 00.5.5h.743a.428.428 0 110 .856h-.743a.5.5 0 00-.5.5v.871a.5.5 0 01-.5.5h-.057a.5.5 0 01-.5-.5v-3.654a.5.5 0 01.5-.5h1.913c.238 0 .431.194.431.432zm-4.166-6.3a.5.5 0 01-.5-.5V3.874a.5.5 0 01.853-.354l4.127 4.126a.5.5 0 01-.354.854h-4.126z" fill="#FED43D"/></svg><svg fill="none" viewBox="0 0 22 22" id="phone" xmlns="http://www.w3.org/2000/svg"><path d="M21.401 16.146l-3.07-3.07c-1.096-1.097-2.96-.658-3.4.767-.328.987-1.424 1.535-2.411 1.316-2.193-.548-5.154-3.4-5.702-5.702-.329-.987.329-2.083 1.316-2.412 1.425-.439 1.864-2.303.767-3.4L5.831.576c-.877-.767-2.193-.767-2.96 0L.787 2.66c-2.083 2.193.22 8.004 5.373 13.158 5.153 5.153 10.965 7.566 13.158 5.373l2.083-2.084c.768-.877.768-2.193 0-2.96z" fill="#1088ca"/></svg><svg fill="none" viewBox="0 0 24 30" id="security" xmlns="http://www.w3.org/2000/svg"><path d="M23.36 6.074L12.085.066a.56.56 0 00-.534.003L.588 6.077a.561.561 0 00-.291.493v7.848a16.25 16.25 0 009.74 14.872l1.521.663a.56.56 0 00.447 0l1.714-.74a16.218 16.218 0 009.938-14.951V6.57a.561.561 0 00-.297-.496zm-.825 8.188A15.098 15.098 0 0113.28 28.18l-.004.002-1.493.645-1.297-.566a15.126 15.126 0 01-9.067-13.843V6.902l10.406-5.703 10.71 5.707v7.356z" fill="#1088ca"/><path d="M7.683 14.054a.561.561 0 10-.854.729l2.965 3.472a.561.561 0 00.781.071l6.906-5.618a.561.561 0 10-.708-.871l-6.48 5.272-2.61-3.055z" fill="#1088ca"/></svg><svg fill="none" viewBox="0 0 203 203" id="star" xmlns="http://www.w3.org/2000/svg"><path d="M88.29 1.201A2 2 0 0191.586.83l9.811 11.507a2 2 0 002.995.056l10.232-11.134a2 2 0 013.279.494l6.498 13.654a2 2 0 002.878.83l12.766-8.107a2 2 0 013.038 1.326l2.743 14.87a2 2 0 002.566 1.546l14.428-4.526a2 2 0 012.593 2.067l-1.2 15.075a2 2 0 002.078 2.157l15.108-.638a2 2 0 011.969 2.668l-5.06 14.25a2 2 0 001.449 2.62l14.759 3.296a2 2 0 011.211 3.086l-8.576 12.455a2 2 0 00.721 2.906l13.403 7.003a2 2 0 01.372 3.294l-11.508 9.811a2 2 0 00-.056 2.995l11.134 10.232a2 2 0 01-.493 3.279l-13.655 6.498a2 2 0 00-.829 2.878l8.106 12.766a2 2 0 01-1.325 3.039l-14.871 2.742a2 2 0 00-1.546 2.566l4.526 14.428a2 2 0 01-2.067 2.593l-15.074-1.2a2 2 0 00-2.157 2.078l.637 15.108a1.999 1.999 0 01-2.667 1.969l-14.25-5.06a2 2 0 00-2.621 1.449l-3.295 14.759a2 2 0 01-3.086 1.211l-12.455-8.576a2 2 0 00-2.907.721l-7.002 13.403a2 2 0 01-3.295.372l-9.811-11.508a2 2 0 00-2.994-.056l-10.233 11.134a2 2 0 01-3.278-.493l-6.498-13.655a2 2 0 00-2.878-.829l-12.766 8.106a2 2 0 01-3.039-1.325l-2.743-14.871a2 2 0 00-2.565-1.546l-14.429 4.526a2 2 0 01-2.592-2.067l1.2-15.074a2 2 0 00-2.078-2.157l-15.109.637a2 2 0 01-1.969-2.667l5.06-14.25a2 2 0 00-1.448-2.621l-14.76-3.295a2 2 0 01-1.21-3.086l8.575-12.455a2 2 0 00-.72-2.907L1.2 114.185a2 2 0 01-.371-3.295l11.507-9.811a2 2 0 00.056-2.994L1.259 87.852a2 2 0 01.494-3.278l13.654-6.498a2 2 0 00.83-2.878L8.13 62.432a2 2 0 011.326-3.039l14.87-2.743a2 2 0 001.546-2.565l-4.526-14.429a2 2 0 012.067-2.592l15.075 1.2a2 2 0 002.156-2.078l-.637-15.109a2 2 0 012.668-1.969l14.25 5.06a2 2 0 002.62-1.448L62.84 7.96a2 2 0 013.087-1.21l12.455 8.575a2 2 0 002.906-.72L88.291 1.2z" fill="#1088ca"/></svg><svg fill="none" viewBox="0 0 30 22" id="truck" xmlns="http://www.w3.org/2000/svg"><path d="M19.375 18.75H8.125a.625.625 0 010-1.25H18.75V1.25H1.25V17.5h1.875a.625.625 0 010 1.25h-2.5A.625.625 0 010 18.125V.625C0 .28.28 0 .625 0h18.75c.345 0 .625.28.625.625v17.5c0 .345-.28.625-.625.625z" fill="#1088ca"/><path d="M29.375 18.75H26.25a.625.625 0 010-1.25h2.5V9.375A4.38 4.38 0 0024.375 5H20v12.5h1.25a.625.625 0 010 1.25h-1.875a.625.625 0 01-.625-.625V4.375c0-.345.28-.625.625-.625h5A5.632 5.632 0 0130 9.375v8.75c0 .345-.28.625-.625.625z" fill="#1088ca"/><path d="M23.75 21.25a3.129 3.129 0 01-3.125-3.125A3.129 3.129 0 0123.75 15a3.129 3.129 0 013.125 3.125 3.129 3.129 0 01-3.125 3.125zm0-5a1.877 1.877 0 00-1.875 1.875c0 1.034.841 1.875 1.875 1.875a1.877 1.877 0 001.875-1.875 1.877 1.877 0 00-1.875-1.875zM5.625 21.25A3.129 3.129 0 012.5 18.125 3.129 3.129 0 015.625 15a3.129 3.129 0 013.125 3.125 3.129 3.129 0 01-3.125 3.125zm0-5a1.877 1.877 0 00-1.875 1.875c0 1.034.841 1.875 1.875 1.875A1.877 1.877 0 007.5 18.125a1.877 1.877 0 00-1.875-1.875z" fill="#1088ca"/></svg><svg version="1.1" id="video-icon" x="0" y="0" viewBox="0 0 461 333.7" xml:space="preserve" xmlns="http://www.w3.org/2000/svg"><style>.pst0{fill:#f61c0d}</style><path class="pst0" d="M365.3 3.8H95.7C42.9 3.8 0 46.6 0 99.5v134.7C0 287.1 42.9 330 95.7 330h269.5c52.9 0 95.7-42.9 95.7-95.7V99.5c.1-52.9-42.8-95.7-95.6-95.7zm-64.8 169.6l-126.1 60.1c-3.4 1.6-7.2-.8-7.2-4.6V105c0-3.8 4-6.2 7.3-4.5l126.1 63.9c3.8 1.8 3.7 7.2-.1 9z"/></svg></svg>