<?xml version="1.0" encoding="UTF-8" standalone="no" ?>
<!DOCTYPE svg PUBLIC "-//W3C//DTD SVG 1.1//EN" "http://www.w3.org/Graphics/SVG/1.1/DTD/svg11.dtd">
<svg xmlns="http://www.w3.org/2000/svg" xmlns:xlink="http://www.w3.org/1999/xlink" version="1.1" width="50" height="50" viewBox="0 0 50 50" xml:space="preserve">
<desc>Created with Fabric.js 3.6.6</desc>
<defs>
</defs>
<g transform="matrix(0.06 0 0 0.06 25 25)"  >
<g style=""   >
		<g transform="matrix(0.78 0 0 0.78 0 0)"  >
<circle style="stroke: none; stroke-width: 1; stroke-dasharray: none; stroke-linecap: butt; stroke-dashoffset: 0; stroke-linejoin: miter; stroke-miterlimit: 4; fill: rgb(39,135,245); fill-rule: nonzero; opacity: 1;"  cx="0" cy="0" r="512" />
</g>
		<g transform="matrix(0.78 0 0 0.78 0 0)"  >
<path style="stroke: none; stroke-width: 1; stroke-dasharray: none; stroke-linecap: butt; stroke-dashoffset: 0; stroke-linejoin: miter; stroke-miterlimit: 4; fill: rgb(255,255,255); fill-rule: nonzero; opacity: 1;"  transform=" translate(-512, -512)" d="M 585.83 271.5 H 438.17 c -134.76 0 -166.67 31.91 -166.67 166.67 v 147.66 c 0 134.76 31.91 166.67 166.67 166.67 h 147.66 c 134.76 0 166.67 -31.91 166.67 -166.67 V 438.17 c 0 -134.76 -32.25 -166.67 -166.67 -166.67 z m 74 343.18 h -35 c -13.24 0 -17.31 -10.52 -41.07 -34.62 c -20.71 -20 -29.87 -22.74 -35 -22.74 c -7.13 0 -9.17 2 -9.17 11.88 v 31.57 c 0 8.49 -2.72 13.58 -25.12 13.58 c -37 0 -78.07 -22.4 -106.93 -64.16 c -43.45 -61.1 -55.33 -106.93 -55.33 -116.43 c 0 -5.09 2 -9.84 11.88 -9.84 h 35 c 8.83 0 12.22 4.07 15.61 13.58 c 17.31 49.9 46.17 93.69 58 93.69 c 4.41 0 6.45 -2 6.45 -13.24 v -51.6 c -1.36 -23.76 -13.92 -25.8 -13.92 -34.28 c 0 -4.07 3.39 -8.15 8.83 -8.15 h 55 c 7.47 0 10.18 4.07 10.18 12.9 v 69.58 c 0 7.47 3.39 10.18 5.43 10.18 c 4.41 0 8.15 -2.72 16.29 -10.86 c 25.12 -28.17 43.11 -71.62 43.11 -71.62 c 2.38 -5.09 6.45 -9.84 15.28 -9.84 h 35 c 10.52 0 12.9 5.43 10.52 12.9 c -4.41 20.37 -47.18 80.79 -47.18 80.79 c -3.73 6.11 -5.09 8.83 0 15.61 c 3.73 5.09 16 15.61 24.1 25.12 c 14.94 17 26.48 31.23 29.53 41.07 c 3.45 9.84 -1.65 14.93 -11.49 14.93 z" stroke-linecap="round" />
</g>
</g>
</g>
</svg>