<?xml version="1.0" standalone="no"?>
<!DOCTYPE svg PUBLIC "-//W3C//DTD SVG 20010904//EN"
 "http://www.w3.org/TR/2001/REC-SVG-20010904/DTD/svg10.dtd">
<svg version="1.0" xmlns="http://www.w3.org/2000/svg"
 width="371.000000pt" height="371.000000pt" viewBox="0 0 371.000000 371.000000"
 preserveAspectRatio="xMidYMid meet">
<metadata>
Created by potrace 1.14, written by Peter Selinger 2001-2017
</metadata>
<g transform="translate(0.000000,371.000000) scale(0.100000,-0.100000)"
fill="#000000" stroke="none">
<path d="M515 3668 c-3 -24 -5 -383 -3 -798 l3 -755 104 -5 c90 -4 102 -7 88
-19 -24 -19 -21 -40 13 -107 30 -58 31 -61 35 -244 4 -202 18 -287 59 -368 37
-72 68 -91 174 -103 82 -10 94 -9 136 10 31 13 52 31 64 53 18 33 120 148 132
148 4 0 17 -23 31 -52 13 -28 48 -88 77 -132 l53 -81 -28 -20 c-56 -40 -115
-100 -139 -140 -49 -85 -49 -256 0 -525 13 -69 22 -127 20 -129 -1 -2 -23 5
-48 14 -90 34 -164 4 -202 -82 -13 -28 -39 -72 -58 -98 -21 -26 -33 -52 -29
-61 12 -32 222 -119 370 -153 42 -10 56 -10 80 2 26 13 30 13 48 -5 18 -18 29
-19 95 -14 84 7 174 28 196 46 8 7 14 30 14 51 0 21 4 49 10 64 9 24 4 50 -25
117 -5 13 -3 18 8 18 19 0 29 29 27 73 -1 17 -2 46 -1 64 l1 32 68 -23 c105
-36 249 -67 342 -74 l85 -7 -3 -75 c-3 -65 -1 -80 20 -110 13 -19 43 -45 67
-57 24 -12 51 -28 60 -36 22 -18 68 -37 90 -37 10 0 39 18 64 41 53 46 102
137 117 218 12 66 13 158 1 165 -15 10 -32 -21 -26 -46 10 -37 -13 -158 -41
-214 -13 -29 -45 -70 -69 -93 -45 -41 -45 -41 -76 -25 l-31 15 41 35 c65 56
121 196 121 304 0 45 3 46 143 53 43 2 82 8 87 13 5 5 27 130 50 277 33 214
39 271 29 283 -14 18 -23 9 124 117 66 49 117 94 117 103 0 26 -83 133 -103
134 -11 0 -32 -8 -48 -17 l-29 -17 -34 41 c-47 54 -164 123 -210 123 -28 0
-38 6 -53 30 -22 38 -66 41 -103 5 -14 -13 -30 -21 -37 -17 -6 4 -27 50 -47
102 -21 52 -54 124 -74 159 -20 36 -46 87 -57 114 -27 68 -58 88 -142 96 -47
5 -81 15 -112 33 l-44 26 319 4 c285 4 327 7 396 26 478 131 716 655 499 1097
-102 206 -325 388 -551 451 -61 17 -140 19 -1157 22 l-1092 3 -6 -43z m2310
-42 c265 -79 462 -278 537 -543 31 -110 31 -277 -1 -387 -61 -217 -208 -395
-406 -491 -137 -66 -153 -68 -545 -72 l-355 -4 -35 25 c-19 14 -46 33 -59 43
-13 10 -48 19 -82 21 -33 2 -59 8 -59 11 0 4 13 17 30 29 29 22 36 22 345 22
l315 0 0 273 0 272 -210 -3 -211 -3 -15 38 c-9 21 -25 50 -35 65 -11 14 -19
29 -19 32 0 3 110 6 245 6 l245 0 0 270 0 270 -435 0 -435 0 0 -160 0 -160
-40 20 c-21 11 -50 22 -62 23 -23 4 -23 7 -26 140 l-3 137 -409 0 -410 0 0
-270 0 -270 382 0 383 0 -38 -31 c-21 -17 -47 -49 -58 -70 l-20 -40 -322 1
-322 1 -3 -270 c-2 -224 0 -271 11 -271 8 0 18 -14 23 -31 5 -18 22 -41 37
-53 23 -17 32 -19 58 -9 23 9 37 9 64 -3 23 -9 42 -11 58 -5 29 11 58 -2 41
-19 -14 -14 -169 -29 -306 -30 l-108 0 0 760 0 761 1098 -4 c1020 -2 1101 -4
1157 -21z m-1365 -287 c0 -113 -3 -145 -16 -165 -13 -20 -16 -40 -11 -94 l6
-70 -359 0 c-333 0 -359 -1 -363 -17 -3 -10 -5 96 -6 234 l-1 253 368 2 c202
2 370 2 375 0 4 -2 7 -66 7 -143z m1000 -89 l0 -240 -242 0 -243 0 -59 30
c-44 23 -72 30 -115 30 -55 0 -57 1 -98 49 l-43 50 0 154 c0 84 3 156 6 160 3
3 183 6 400 6 l394 0 0 -239z m-879 -335 c61 -31 201 -163 236 -222 22 -37 23
-46 12 -60 -8 -9 -13 -24 -11 -35 2 -11 -3 -18 -13 -18 -12 0 -15 -5 -11 -16
5 -12 2 -15 -10 -10 -15 6 -16 0 -11 -46 5 -40 12 -57 29 -68 76 -50 89 -101
37 -144 -40 -34 -91 -35 -114 -3 -16 21 -17 21 -11 1 11 -38 -89 -106 -179
-123 -131 -24 -295 67 -326 181 -20 76 8 246 46 278 11 9 21 4 47 -22 18 -19
26 -25 17 -14 -46 58 -51 105 -14 141 13 14 35 25 48 25 20 0 25 6 30 36 3 20
14 45 23 55 23 25 75 24 108 -2 15 -12 30 -19 33 -15 13 12 -31 46 -71 54
l-41 8 40 22 c50 27 46 27 106 -3z m-266 -122 c-48 -25 -64 -43 -71 -82 -4
-20 -15 -47 -25 -60 -35 -44 -60 -149 -58 -236 2 -79 2 -80 -24 -83 -22 -3
-29 3 -41 31 -17 43 -29 50 -86 54 -25 1 -61 5 -80 8 -23 4 -42 1 -54 -8 -15
-11 -26 -12 -48 -3 -44 16 -79 -8 -100 -69 -17 -50 -17 -48 -18 208 l0 257
318 0 c295 -1 315 -2 287 -17z m1145 -223 l0 -240 -274 0 c-151 0 -277 4 -280
8 -8 13 46 82 92 120 25 20 53 57 73 97 30 61 31 69 27 160 l-4 95 183 0 183
0 0 -240z m-1500 -199 c21 -41 5 -143 -26 -155 -54 -21 -82 83 -43 156 13 24
56 23 69 -1z m-120 -10 c22 -41 6 -126 -26 -138 -22 -8 -54 30 -54 63 0 14 7
40 14 59 17 40 49 47 66 16z m218 7 c7 -7 12 -32 12 -56 0 -42 1 -43 28 -40
27 3 27 3 32 -68 3 -49 11 -78 23 -91 35 -39 13 -89 -54 -123 -45 -24 -49 -46
-23 -124 23 -68 15 -331 -14 -430 -29 -99 -48 -121 -105 -120 -112 1 -158 128
-161 444 -1 170 -2 176 -28 220 -14 25 -28 54 -30 65 -5 29 39 45 148 56 121
11 164 33 164 85 0 19 -5 24 -25 24 -33 0 -48 32 -43 91 7 70 42 101 76 67z
m170 -129 c38 -41 38 -42 23 -75 -12 -26 -22 -33 -43 -34 -36 0 -48 24 -48 94
0 69 14 72 68 15z m518 0 c15 -25 -107 -92 -196 -109 -49 -9 -168 -4 -157 7 3
2 40 5 83 7 86 3 161 30 219 80 34 29 41 31 51 15z m44 -30 c12 -8 12 -12 2
-16 -7 -3 -33 -22 -57 -43 -86 -75 -238 -107 -312 -67 -18 10 -33 21 -33 25 0
4 40 6 88 4 103 -4 175 18 245 73 48 39 47 38 67 24z m248 -105 c20 -9 68 -34
106 -56 l68 -40 -35 -37 c-58 -60 -80 -115 -85 -212 l-4 -87 -60 -12 c-77 -17
-105 -7 -140 50 -60 97 -77 286 -33 374 25 51 67 70 112 50 18 -8 50 -21 71
-30z m-818 -4 c0 -5 -4 -10 -10 -10 -5 0 -10 5 -10 10 0 6 5 10 10 10 6 0 10
-4 10 -10z m34 -42 c-4 -7 -16 -23 -26 -34 -15 -17 -18 -33 -15 -85 l3 -64 2
66 c2 73 7 80 65 99 56 18 67 4 67 -85 0 -86 -10 -99 -73 -94 l-43 4 12 -53
12 -52 -25 20 c-59 46 -58 6 2 -83 25 -37 45 -70 45 -72 0 -3 11 -23 24 -44
l24 -38 -69 -69 c-37 -37 -70 -66 -73 -63 -9 10 -26 154 -26 227 0 69 -3 84
-27 118 l-26 39 22 65 c24 68 69 149 104 188 23 24 32 29 21 10z m533 -10 c14
-23 14 -161 1 -170 -20 -12 -103 -9 -116 4 -14 14 -16 116 -2 138 9 15 63 38
92 39 9 1 20 -5 25 -11z m-236 -13 l106 0 -8 -35 c-5 -19 -9 -70 -9 -113 0
-76 0 -78 -32 -97 -44 -26 -131 -27 -173 -1 -37 22 -55 85 -55 193 l0 70 33
-9 c17 -4 80 -8 138 -8z m729 -59 c-30 -6 -66 -18 -80 -25 l-25 -14 24 27 c21
22 32 26 80 25 l56 -1 -55 -12z m111 -58 c42 -57 114 -205 141 -291 18 -55 30
-74 53 -89 38 -23 37 -23 57 12 22 38 42 38 58 0 11 -27 17 -30 55 -30 63 0
174 -66 214 -127 17 -26 31 -51 31 -56 0 -5 11 -2 25 7 79 51 68 51 103 2 18
-24 32 -47 32 -49 0 -3 -74 -60 -165 -127 -150 -111 -168 -121 -202 -118 l-38
3 67 50 c37 28 67 56 68 63 0 26 -38 9 -115 -49 l-80 -60 -175 7 c-193 9 -219
9 -227 0 -4 -3 -106 -514 -113 -562 -2 -15 -174 51 -346 133 l-81 38 38 230
c47 280 44 271 68 278 30 8 170 205 187 264 18 61 46 77 89 49 24 -16 24 -16
8 -61 l-15 -45 58 -145 c52 -130 60 -145 87 -155 38 -13 54 0 115 93 33 52 41
72 33 80 -9 9 -17 4 -34 -17 -21 -25 -26 -27 -46 -17 -26 14 -41 49 -41 97 0
27 -4 34 -19 34 -18 0 -24 10 -59 99 -4 10 -1 13 10 9 10 -4 28 6 48 27 l33
34 -72 67 c-84 79 -131 146 -131 187 0 42 27 93 69 128 41 34 78 47 138 48 39
1 46 -3 74 -41z m-1246 -305 c1 -49 5 -124 9 -168 10 -98 -3 -123 -73 -132
l-43 -6 17 26 c29 45 45 127 52 265 6 120 8 132 22 118 11 -12 15 -39 16 -103z
m1295 -1144 c0 -5 4 -8 9 -5 13 8 45 -20 37 -32 -4 -7 -16 -12 -28 -12 -20 0
-20 -1 2 -18 28 -23 18 -46 -16 -39 -19 3 -22 2 -13 -9 12 -15 4 -34 -15 -34
-7 0 -21 9 -31 20 -17 18 -17 24 -4 62 7 23 14 47 15 53 2 22 5 25 24 25 11 0
20 -5 20 -11z m-965 -153 c24 -17 10 -39 -21 -33 -20 4 -23 1 -18 -18 8 -33
-15 -43 -37 -16 l-18 21 -3 -22 c-4 -30 -34 -35 -43 -8 -5 16 -10 18 -19 11
-26 -22 -36 21 -12 54 11 16 27 20 83 22 45 2 76 -2 88 -11z m-142 -182 c110
-31 294 -43 376 -25 30 6 55 10 57 8 2 -1 1 -13 -3 -25 -7 -27 -50 -40 -160
-49 -75 -5 -82 -4 -94 16 -16 25 -31 26 -65 5 -23 -16 -30 -16 -111 5 -82 21
-279 96 -288 111 -2 4 2 16 10 28 l15 20 86 -34 c47 -19 127 -46 177 -60z"/>
<path d="M2640 3230 l0 -270 280 0 280 0 0 23 c0 35 -29 126 -60 187 -41 81
-104 155 -175 205 -93 67 -150 90 -302 121 l-23 4 0 -270z m110 229 c200 -55
339 -185 385 -360 26 -97 47 -89 -224 -89 -220 0 -240 -1 -244 -17 -3 -10 -5
96 -6 235 0 138 2 252 7 252 4 0 41 -9 82 -21z"/>
<path d="M2644 2815 c-3 -6 -3 -127 -2 -270 l3 -260 35 3 c123 13 297 104 382
202 73 83 137 228 138 310 l0 25 -276 0 c-178 0 -278 -4 -280 -10z m492 -37
c-3 -18 -24 -70 -46 -115 -70 -141 -199 -248 -362 -299 -42 -13 -58 -23 -61
-38 -2 -12 -5 93 -6 232 l-1 252 241 0 242 0 -7 -32z"/>
<path d="M1414 2784 c-15 -22 -15 -27 -3 -34 9 -6 17 -4 22 5 4 8 12 15 17 15
14 0 12 -28 -2 -32 -7 -3 -6 -7 5 -11 21 -8 23 19 5 58 -14 32 -23 32 -44 -1z"/>
<path d="M1610 2777 c0 -8 11 -19 24 -25 33 -15 55 -50 65 -103 l9 -44 1 53
c1 58 -18 105 -48 122 -27 14 -51 13 -51 -3z"/>
<path d="M1562 2678 c-18 -18 -15 -41 8 -61 28 -24 39 -21 46 10 11 44 -26 79
-54 51z m48 -48 c0 -5 -7 -10 -15 -10 -8 0 -15 5 -15 10 0 6 7 10 15 10 8 0
15 -4 15 -10z"/>
<path d="M1350 2641 c0 -5 7 -11 15 -15 9 -3 20 -16 25 -28 5 -14 9 -17 9 -8
1 9 -6 26 -15 38 -15 22 -34 29 -34 13z"/>
<path d="M1252 2508 c-49 -62 12 -177 102 -194 69 -13 157 57 89 71 -65 14
-114 45 -141 90 -29 48 -34 51 -50 33z m33 -39 c19 -35 94 -86 142 -95 40 -7
43 -19 7 -28 -64 -16 -215 110 -177 147 10 10 11 9 28 -24z"/>
<path d="M1490 2381 c0 -17 5 -31 10 -31 6 0 10 11 10 24 0 14 -4 28 -10 31
-6 4 -10 -7 -10 -24z"/>
<path d="M1273 2017 c-33 -10 -33 -11 -33 -73 l0 -64 45 0 46 0 -3 72 c-2 39
-7 72 -13 74 -5 1 -25 -3 -42 -9z"/>
<path d="M1712 2025 c-32 -14 -33 -15 -30 -72 l3 -58 48 -3 47 -3 -4 73 c-4
81 -10 87 -64 63z"/>
<path d="M2837 1347 c-18 -27 -97 -184 -97 -192 0 -4 51 29 114 72 124 84 130
95 66 128 -41 21 -65 19 -83 -8z"/>
<path d="M2932 1248 c-7 -7 -12 -18 -12 -26 0 -10 7 -9 29 4 17 10 28 21 25
26 -7 12 -28 10 -42 -4z"/>
<path d="M2957 1210 c-21 -13 -24 -19 -14 -23 18 -7 51 15 46 30 -2 6 -15 3
-32 -7z"/>
</g>
</svg>
