<svg width="148" height="22" fill="none" xmlns="http://www.w3.org/2000/svg"><path d="M23.99 4.91V18h3.082V9.914h.108l3.145 8.003h1.969l3.145-7.958h.109V18h3.08V4.91H34.71l-3.324 8.104h-.153L27.909 4.91h-3.918zM43.435 18l.863-2.749h4.519L49.679 18h3.4L48.663 4.91H44.45L40.033 18h3.4zm1.617-5.152l1.451-4.64h.102l1.458 4.64H45.05zm16.11-4.014h3.03c-.026-2.448-1.976-4.104-5.018-4.104-2.992 0-5.146 1.63-5.127 4.065-.006 1.988 1.387 3.107 3.65 3.625l1.368.32c1.438.332 2.084.722 2.096 1.457-.012.799-.76 1.355-2.032 1.355-1.4 0-2.32-.652-2.39-1.911h-3.03c.038 3.061 2.166 4.525 5.458 4.525 3.26 0 5.19-1.476 5.203-3.963-.013-2.09-1.425-3.368-4.008-3.937l-1.124-.256c-1.19-.256-1.944-.652-1.918-1.432.006-.716.62-1.234 1.847-1.234 1.234 0 1.911.557 1.995 1.49zm4.378-1.355h3.976V18h3.12V7.479h3.969v-2.57H65.539v2.57zM78.15 18h9.128v-2.57h-5.964v-2.69h5.497v-2.577h-5.497V7.48h5.964V4.91H78.15V18zm11.11 0h3.163v-4.48h1.624l2.39 4.48h3.452l-2.716-4.986c1.438-.652 2.269-1.937 2.269-3.746 0-2.69-1.835-4.359-4.775-4.359h-5.408V18zm3.163-6.974V7.46h1.56c1.42 0 2.18.594 2.18 1.808 0 1.215-.76 1.758-2.18 1.758h-1.56zm15.83-2.192h3.03c-.025-2.448-1.975-4.104-5.018-4.104-2.991 0-5.145 1.63-5.126 4.065-.006 1.988 1.387 3.107 3.65 3.625l1.368.32c1.438.332 2.084.722 2.096 1.457-.012.799-.76 1.355-2.032 1.355-1.4 0-2.321-.652-2.391-1.911h-3.03c.039 3.061 2.167 4.525 5.459 4.525 3.26 0 5.19-1.476 5.203-3.963-.013-2.09-1.425-3.368-4.008-3.937l-1.125-.256c-1.189-.256-1.943-.652-1.917-1.432.006-.716.62-1.234 1.847-1.234 1.234 0 1.911.557 1.994 1.49zm11.091 1.412h-6.06v2.41h6.06v-2.41zm14.562 1.208c0-4.327-2.736-6.724-6.251-6.724-3.529 0-6.245 2.397-6.245 6.724 0 4.309 2.716 6.725 6.245 6.725 3.515 0 6.251-2.397 6.251-6.724zm-3.234 0c0 2.564-1.125 3.95-3.017 3.95-1.886 0-3.017-1.386-3.017-3.95 0-2.563 1.131-3.95 3.017-3.95 1.892 0 3.017 1.387 3.017 3.95zm5.08 6.546h3.165v-3.548l1.265-1.598 3.26 5.146h3.784l-4.724-7.249 4.641-5.842h-3.726l-4.328 5.536h-.172V4.909h-3.165V18z" fill="#383838"/><path fill="#25A94D" d="M0 2h7.2v7.2H0zm0 8.64h7.2V20H0zM8.64 2h7.2v7.2h-7.2zm0 8.64h7.2V20h-7.2z"/><ellipse cx="127.5" cy="11.5" rx="6.5" ry="7.5" fill="#25A94D"/><path d="M131.838 8.005l-2.016 2.773-2.52-1.833 2.015-2.773a4.051 4.051 0 00-4.397 6.05l-3.253 4.474a.623.623 0 00.138.87l1.512 1.1a.636.636 0 00.464.112.616.616 0 00.407-.25l3.252-4.474a4.052 4.052 0 004.398-6.05z" fill="#fff"/></svg>